<svg width="33" height="33" viewBox="0 0 33 33" fill="none" xmlns="http://www.w3.org/2000/svg">
<g clip-path="url(#clip0_1001_3890)">
<ellipse cx="16.983" cy="11.1985" rx="6.08504" ry="5.85966" fill="#4A2E2E"/>
<path d="M16.9844 1.35742H16.9387C11.4124 1.35742 6.9165 5.85178 6.9165 11.376C6.9165 14.9971 8.56562 19.7761 11.818 25.5805C14.2294 29.8837 16.6745 33.1795 16.699 33.2122C16.767 33.3036 16.8743 33.3575 16.988 33.3575C16.9912 33.3575 16.9945 33.3575 16.9978 33.3573C17.115 33.3541 17.2233 33.2941 17.2883 33.1964C17.3124 33.1598 19.7402 29.4937 22.1351 25.0097C25.3677 18.9574 27.0067 14.3703 27.0067 11.376C27.0065 5.85171 22.5106 1.35742 16.9844 1.35742ZM21.6105 11.6208C21.6105 14.1844 19.525 16.2698 16.9615 16.2698C14.398 16.2698 12.3125 14.1843 12.3125 11.6208C12.3125 9.05739 14.398 6.97188 16.9615 6.97188C19.525 6.97188 21.6105 9.05739 21.6105 11.6208Z" fill="#4A2E2E"/>
<path d="M20.8435 13.6666L17.4636 7.87936C17.1818 7.5975 16.7244 7.5975 16.4426 7.87936L13.0625 13.6666C12.7806 13.9482 12.7806 14.4052 13.0625 14.6874H20.8432C21.1256 14.4052 21.1256 13.9482 20.8435 13.6666ZM16.6418 9.95683C16.6418 9.73302 16.8232 9.55186 17.0468 9.55186C17.2703 9.55186 17.4517 9.73302 17.4517 9.95683V11.8467C17.4517 12.0702 17.2703 12.2516 17.0468 12.2516C16.8232 12.2516 16.6418 12.0702 16.6418 11.8467V9.95683ZM17.0492 13.6037C16.8257 13.6037 16.6442 13.4228 16.6442 13.1987C16.6442 12.9752 16.8257 12.7937 17.0492 12.7937C17.2727 12.7937 17.4542 12.9752 17.4542 13.1987C17.4542 13.4228 17.2727 13.6037 17.0492 13.6037Z" fill="#E74C3C"/>
</g>
<defs>
<clipPath id="clip0_1001_3890">
<rect width="32" height="32" fill="white" transform="translate(0.981445 0.981445)"/>
</clipPath>
</defs>
</svg>
