<svg width="33" height="33" viewBox="0 0 33 33" fill="none" xmlns="http://www.w3.org/2000/svg">
<g clip-path="url(#clip0_1001_3872)">
<ellipse cx="16.983" cy="11.1985" rx="6.08504" ry="5.85966" fill="#3B4F78"/>
<path d="M16.9844 1.35742H16.9387C11.4124 1.35742 6.9165 5.85178 6.9165 11.376C6.9165 14.9971 8.56562 19.7761 11.818 25.5805C14.2294 29.8837 16.6745 33.1795 16.699 33.2122C16.767 33.3036 16.8743 33.3575 16.988 33.3575C16.9912 33.3575 16.9945 33.3575 16.9978 33.3573C17.115 33.3541 17.2233 33.2941 17.2883 33.1964C17.3124 33.1598 19.7402 29.4937 22.1351 25.0097C25.3677 18.9574 27.0067 14.3703 27.0067 11.376C27.0065 5.85171 22.5106 1.35742 16.9844 1.35742ZM21.6105 11.6208C21.6105 14.1844 19.525 16.2698 16.9615 16.2698C14.398 16.2698 12.3125 14.1843 12.3125 11.6208C12.3125 9.05739 14.398 6.97188 16.9615 6.97188C19.525 6.97188 21.6105 9.05739 21.6105 11.6208Z" fill="#3B4F78"/>
<path fill-rule="evenodd" clip-rule="evenodd" d="M13.1563 12.4818C13.2783 12.4738 13.4341 12.4736 13.6576 12.4736H20.2771C20.5006 12.4736 20.6565 12.4738 20.7784 12.4818C20.8983 12.4897 20.9681 12.5045 21.0213 12.5258C21.1951 12.5953 21.3332 12.7287 21.4051 12.8966C21.4272 12.9481 21.4425 13.0155 21.4507 13.1313C21.459 13.2491 21.4591 13.3997 21.4591 13.6157C21.4591 13.8316 21.459 13.9822 21.4507 14.1C21.4425 14.2158 21.4272 14.2832 21.4051 14.3347C21.3332 14.5026 21.1951 14.636 21.0213 14.7056C20.9681 14.7269 20.8983 14.7417 20.7784 14.7496C20.6565 14.7576 20.5006 14.7577 20.2771 14.7577H13.6576C13.4341 14.7577 13.2783 14.7576 13.1563 14.7496C13.0365 14.7417 12.9667 14.7269 12.9134 14.7056C12.7396 14.636 12.6016 14.5026 12.5296 14.3347C12.5075 14.2832 12.4922 14.2158 12.484 14.1C12.4757 13.9822 12.4756 13.8316 12.4756 13.6157C12.4756 13.3997 12.4757 13.2491 12.484 13.1313C12.4922 13.0155 12.5075 12.9481 12.5296 12.8966C12.6016 12.7287 12.7396 12.5953 12.9134 12.5258C12.9667 12.5045 13.0365 12.4897 13.1563 12.4818ZM13.6576 14.0725C13.9188 14.0725 14.1305 13.868 14.1305 13.6157C14.1305 13.3634 13.9188 13.1588 13.6576 13.1588C13.3965 13.1588 13.1848 13.3634 13.1848 13.6157C13.1848 13.868 13.3965 14.0725 13.6576 14.0725Z" fill="#4A90E2"/>
<path fill-rule="evenodd" clip-rule="evenodd" d="M13.6576 9.27531C13.4341 9.27531 13.2783 9.27518 13.1563 9.26714C13.0365 9.25925 12.9667 9.24447 12.9134 9.22315C12.7396 9.1536 12.6016 9.02021 12.5296 8.8523C12.5075 8.80082 12.4922 8.7334 12.484 8.61761C12.4757 8.49978 12.4756 8.34923 12.4756 8.13326C12.4756 7.91728 12.4757 7.76674 12.484 7.6489C12.4922 7.53312 12.5075 7.4657 12.5296 7.41421C12.6016 7.24631 12.7396 7.11292 12.9134 7.04337C12.9667 7.02205 13.0365 7.00727 13.1563 6.99937C13.2783 6.99134 13.4341 6.99121 13.6576 6.99121H20.2771C20.5006 6.99121 20.6565 6.99134 20.7784 6.99937C20.8983 7.00727 20.9681 7.02205 21.0213 7.04337C21.1951 7.11292 21.3332 7.24631 21.4051 7.41421C21.4272 7.4657 21.4425 7.53312 21.4507 7.6489C21.459 7.76674 21.4591 7.91728 21.4591 8.13326C21.4591 8.34923 21.459 8.49978 21.4507 8.61761C21.4425 8.7334 21.4272 8.80082 21.4051 8.8523C21.3332 9.02021 21.1951 9.1536 21.0213 9.22315C20.9681 9.24447 20.8983 9.25925 20.7784 9.26714C20.6565 9.27518 20.5006 9.27531 20.2771 9.27531H13.6576ZM13.6576 9.73213C13.4341 9.73213 13.2783 9.73225 13.1563 9.74029C13.0365 9.74819 12.9667 9.76296 12.9134 9.78429C12.7396 9.85383 12.6016 9.98723 12.5296 10.1551C12.5075 10.2066 12.4922 10.274 12.484 10.3898C12.4757 10.5077 12.4756 10.6582 12.4756 10.8742C12.4756 11.0902 12.4757 11.2407 12.484 11.3585C12.4922 11.4743 12.5075 11.5417 12.5296 11.5932C12.6016 11.7611 12.7396 11.8945 12.9134 11.9641C12.9667 11.9854 13.0365 12.0001 13.1563 12.008C13.2783 12.0161 13.4341 12.0162 13.6576 12.0162H20.2771C20.5006 12.0162 20.6565 12.0161 20.7784 12.008C20.8983 12.0001 20.9681 11.9854 21.0213 11.9641C21.1951 11.8945 21.3332 11.7611 21.4051 11.5932C21.4272 11.5417 21.4425 11.4743 21.4507 11.3585C21.459 11.2407 21.4591 11.0902 21.4591 10.8742C21.4591 10.6582 21.459 10.5077 21.4507 10.3898C21.4425 10.274 21.4272 10.2066 21.4051 10.1551C21.3332 9.98723 21.1951 9.85383 21.0213 9.78429C20.9681 9.76296 20.8983 9.74819 20.7784 9.74029C20.6565 9.73225 20.5006 9.73213 20.2771 9.73213H13.6576ZM14.1305 10.8742C14.1305 11.1265 13.9188 11.331 13.6576 11.331C13.3965 11.331 13.1848 11.1265 13.1848 10.8742C13.1848 10.6219 13.3965 10.4174 13.6576 10.4174C13.9188 10.4174 14.1305 10.6219 14.1305 10.8742ZM13.6576 8.59008C13.9188 8.59008 14.1305 8.38555 14.1305 8.13326C14.1305 7.88097 13.9188 7.67644 13.6576 7.67644C13.3965 7.67644 13.1848 7.88097 13.1848 8.13326C13.1848 8.38555 13.3965 8.59008 13.6576 8.59008Z" fill="#4A90E2"/>
</g>
<defs>
<clipPath id="clip0_1001_3872">
<rect width="32" height="32" fill="white" transform="translate(0.981445 0.981445)"/>
</clipPath>
</defs>
</svg>
